<?xml version="1.0" encoding="utf-8"?>
<!-- Generator: Adobe Illustrator 24.2.1, SVG Export Plug-In . SVG Version: 6.00 Build 0)  -->
<svg version="1.1" id="Layer_1" xmlns="http://www.w3.org/2000/svg" xmlns:xlink="http://www.w3.org/1999/xlink" x="0px" y="0px"
	 viewBox="0 0 606 201.3" style="enable-background:new 0 0 606 201.3;" xml:space="preserve">
<style type="text/css">
	.st0{fill:#FFFFFF;}
</style>
<path class="st0" d="M225,83.8c0-1.4-1.1-2.4-2.4-2.4c-0.7,0-1.3,0.3-2.1,1c-2.1,2-4.4,2.9-7.5,2.9c-7,0-11.9-5.2-11.9-12.6
	c0-7.5,4.9-12.7,12-12.7c3.5,0,5.7,1.7,6.5,2.5c1.3,1.2,1.9,1.4,2.6,1.4c1.4,0,2.5-1.1,2.5-2.4c0-0.8-0.3-1.4-1-2.1
	c-2.7-2.5-6.7-4-10.7-4c-10.4,0-17.6,7.1-17.6,17.4c0,10.2,7.3,17.4,17.6,17.4c4.5,0,8.3-1.4,11.1-4.2C224.7,85.2,225,84.5,225,83.8
	z M233.7,89.7c1.3,0,2.7-0.8,2.7-2.9V72.2c0-8.5,4.7-12.3,9.4-12.3c5.8,0,8.4,3.4,8.4,10.9v15.8c0,2.2,1.4,2.9,2.7,2.9
	c1.3,0,2.7-0.8,2.7-2.9V69c0-8.7-4.6-13.7-12.7-13.7c-4.4,0-8.6,2.1-10.6,5.3v-22c0-2.2-1.4-2.9-2.7-2.9s-2.7,0.8-2.7,2.9v48.1
	C231,88.9,232.4,89.7,233.7,89.7z M274.6,86.8V58.6c0-2.2-1.4-2.9-2.7-2.9c-1.3,0-2.7,0.8-2.7,2.9v28.2c0,2.2,1.4,2.9,2.7,2.9
	S274.6,88.9,274.6,86.8z M271.9,47.8c1.8,0,3.7-1.5,3.7-3.7s-1.9-3.7-3.7-3.7c-1.8,0-3.7,1.5-3.7,3.7
	C268.2,46.2,270.1,47.8,271.9,47.8z M286.5,89.7c1.3,0,2.7-0.8,2.7-2.9V38.7c0-2.2-1.4-2.9-2.7-2.9c-1.3,0-2.7,0.8-2.7,2.9v48.1
	C283.8,88.9,285.2,89.7,286.5,89.7z M328.5,35.8c-1.3,0-2.7,0.8-2.7,2.9v22.4c-2.7-3.6-7.2-5.8-12-5.8c-9.9,0-17.1,7.3-17.1,17.4
	s7.2,17.4,17.1,17.4c4.7,0,9.2-2.2,12-5.7v2.4c0,2.2,1.4,2.9,2.7,2.9c1.3,0,2.7-0.8,2.7-2.9V38.7C331.2,36.6,329.8,35.8,328.5,35.8z
	 M314.3,85.2c-7.1,0-11.8-5.1-11.8-12.6c0-6.3,3.7-12.7,11.8-12.7c7,0,12.1,5.3,12.1,12.7C326.3,79.9,321.3,85.2,314.3,85.2z
	 M340.4,86.8c0,2.2,1.4,2.9,2.7,2.9c1.3,0,2.7-0.8,2.7-2.9V72.2c0-5.7,2.4-11.8,9.1-11.8c0.2,0,0.4,0,0.6,0c0.3,0,0.6,0,1,0
	c1.8,0,2.9-1,2.9-2.7c0-0.5-0.2-1.7-1.5-2.2c-0.5-0.2-1.2-0.3-2.1-0.3c-4.2,0-8.1,2.2-10.2,5.6l-0.1-2.5c-0.1-2.5-1.9-2.8-2.7-2.8
	c-0.3,0-1.2,0.1-1.9,0.8c-0.5,0.5-0.7,1.2-0.7,2c0.1,1.1,0.1,3.9,0.1,5.2v23.2C340.3,86.7,340.4,86.7,340.4,86.8z M387.8,87.2
	c4.5-2.6,7.3-6.4,8.4-11.2c0.2-0.8,0.1-1.4-0.3-2c-0.4-0.8-1.2-1.2-2.1-1.2c-0.5,0-0.9,0.1-1.3,0.4c-0.7,0.4-1.1,1-1.3,1.9
	c-0.8,3.6-2.7,6.3-5.8,8.1c-1.8,1-3.7,1.6-5.7,1.6c-3.9,0-7.5-2-9.7-5.4l20.7-12c0.8-0.5,1.3-1.1,1.5-1.7c0.2-0.7,0.1-1.4-0.4-2.2
	c-3.1-5.4-8-8.5-13.4-8.5c-2.8,0-5.6,0.8-8.4,2.4c-8.2,4.8-10.7,14.8-5.8,23.4c3.2,5.6,8.7,8.9,14.7,8.9
	C382.1,89.7,385.1,88.8,387.8,87.2z M377.9,59.8c3.2,0,6.2,1.8,8.4,4.9l-18.4,10.6c-2-4.5-0.8-10.9,4.5-14
	C374.3,60.4,376.1,59.8,377.9,59.8z M417.4,55.3c-4.4,0-8.7,2.3-10.9,5.6l-0.1-2.5c-0.1-2.5-1.9-2.8-2.7-2.8c-0.3,0-1.2,0.1-1.9,0.8
	c-0.5,0.5-0.7,1.2-0.7,2c0.1,1.1,0.1,3.9,0.1,5.2v23.1c0,2.2,1.4,2.9,2.7,2.9c1.3,0,2.7-0.8,2.7-2.9V72.2c0-8.5,4.7-12.3,9.4-12.3
	c5.8,0,8.4,3.4,8.4,10.9v15.8c0,2.2,1.4,2.9,2.7,2.9c1.3,0,2.7-0.8,2.7-2.9V69C430.1,60.3,425.5,55.3,417.4,55.3z M200.5,107
	c-1.8,0-3.7,1.5-3.7,3.7s1.9,3.7,3.7,3.7s3.7-1.5,3.7-3.7S202.3,107,200.5,107z M200.5,122.2c-1.3,0-2.7,0.8-2.7,2.9v28.2
	c0,2.2,1.4,2.9,2.7,2.9s2.7-0.8,2.7-2.9v-28.2C203.2,123,201.8,122.2,200.5,122.2z M229.6,121.9c-4.4,0-8.7,2.3-10.9,5.6l-0.1-2.5
	c-0.1-2.5-1.9-2.8-2.7-2.8c-0.3,0-1.2,0.1-1.9,0.8c-0.5,0.5-0.7,1.2-0.7,2c0.1,1.1,0.1,3.9,0.1,5.2v23.1c0,2.2,1.4,2.9,2.7,2.9
	s2.7-0.8,2.7-2.9v-14.5c0-8.5,4.7-12.3,9.4-12.3c5.8,0,8.4,3.4,8.4,10.9v15.8c0,2.2,1.4,2.9,2.7,2.9s2.7-0.8,2.7-2.9v-17.7
	C242.3,127,237.7,121.9,229.6,121.9z M264.8,127.5c2,0,2.6-1.4,2.6-2.3c0-1.1-0.7-2.4-2.6-2.4h-7v-6.7c0-2.2-1.4-2.9-2.7-2.9
	s-2.7,0.8-2.7,2.9v6.7h-4.6c-1.9,0-2.6,1.3-2.6,2.4c0,0.9,0.5,2.3,2.6,2.3h4.6v19.8c0,8.1,6.1,9,8.7,9c1.7,0,3.5-0.3,4.5-0.7
	c1.6-0.7,1.8-1.9,1.8-2.3c0-1.4-0.9-2.3-2.2-2.3c-0.3,0-0.7,0.1-1.1,0.2c-0.7,0.3-1.3,0.4-1.9,0.4c-2.1,0-4.3-0.7-4.3-5.6v-18.5
	L264.8,127.5L264.8,127.5z M302.9,139.5c-0.5,0-0.9,0.1-1.3,0.4c-0.7,0.4-1.1,1-1.3,1.9c-0.8,3.6-2.7,6.3-5.8,8.1
	c-1.8,1-3.7,1.6-5.7,1.6c-3.9,0-7.5-2-9.7-5.4l20.7-12c1.7-1,2.1-2.3,1.1-3.9c-3.1-5.4-8-8.5-13.4-8.5c-2.8,0-5.6,0.8-8.4,2.4
	c-4,2.3-6.7,5.9-7.8,10.2c-1.1,4.3-0.4,9,2,13.1c3.2,5.6,8.7,8.9,14.7,8.9c3,0,6-0.8,8.7-2.4c4.5-2.6,7.3-6.4,8.4-11.2
	c0.2-0.8,0.1-1.4-0.3-2C304.6,140,303.8,139.5,302.9,139.5z M303,139.9C302.9,139.9,302.9,139.9,303,139.9
	C302.9,139.9,302.9,139.9,303,139.9C302.9,139.9,302.9,139.9,303,139.9z M287,126.5c3.2,0,6.2,1.8,8.4,4.9L277,142.1
	c-2-4.5-0.8-10.9,4.5-14C283.4,127,285.2,126.5,287,126.5z M283.5,126.7L283.5,126.7L283.5,126.7z M329.5,122.2
	c-0.5-0.2-1.2-0.3-2.1-0.3c-4.2,0-8.1,2.2-10.2,5.6l-0.1-2.5c-0.1-2.5-1.9-2.8-2.7-2.8c-0.3,0-1.2,0.1-1.9,0.8
	c-0.5,0.5-0.7,1.2-0.7,2c0.1,1.1,0.1,3.9,0.1,5.2v23.1c0,2.2,1.4,2.9,2.7,2.9c1.3,0,2.7-0.8,2.7-2.9v-14.5c0-5.7,2.4-11.8,9.1-11.8
	c0.2,0,0.4,0,0.6,0c0.3,0,0.6,0,1,0c1.8,0,2.9-1,2.9-2.7C331,123.9,330.8,122.8,329.5,122.2z M353,121.9c-4.4,0-8.7,2.3-10.9,5.6
	L342,125c-0.1-2.5-1.9-2.8-2.7-2.8c-0.3,0-1.2,0.1-1.9,0.8c-0.5,0.5-0.7,1.2-0.7,2c0.1,1.1,0.1,3.9,0.1,5.2v23.1
	c0,2.2,1.4,2.9,2.7,2.9c1.3,0,2.7-0.8,2.7-2.9v-14.5c0-8.5,4.7-12.3,9.4-12.3c5.8,0,8.4,3.4,8.4,10.9v15.8c0,2.2,1.4,2.9,2.7,2.9
	c1.3,0,2.7-0.8,2.7-2.9v-17.7C365.6,127,361,121.9,353,121.9z M400.1,152.4c-0.1-1.1-0.2-2.2-0.2-4.2V134c0-7.5-5-12.1-12.9-12.1
	c-4.6,0-8.9,1.4-11.6,3.7c-0.7,0.6-1,1.3-1,2c0,1.3,0.9,2.3,2.2,2.3c0.6,0,1.2-0.2,1.9-0.7c2.5-1.8,5.1-2.6,8.1-2.6
	c5.5,0,8.3,2.7,8.3,8v0.7c-11.6,0-22.8,1-22.8,11.2c0,7,6,10.2,11.6,10.2c5,0,8.6-1.7,11.5-5.5c0,0.8,0.1,1.6,0.2,2.5
	c0.3,2.4,1.9,2.7,2.6,2.7c1.2,0,2.4-0.8,2.4-2.6c0-0.3,0-0.6-0.1-1.1L400.1,152.4z M384.8,152.1c-1.7,0-7.2-0.4-7.2-5.8
	c0-2.8,1.7-6.6,16.2-6.6h1v2C394.8,146.7,391.6,152.1,384.8,152.1z M422.4,127.5c2,0,2.6-1.4,2.6-2.3c0-1.1-0.7-2.4-2.6-2.4h-7v-6.7
	c0-2.2-1.4-2.9-2.7-2.9c-1.3,0-2.7,0.8-2.7,2.9v6.7h-4.6c-1.9,0-2.6,1.3-2.6,2.4c0,0.9,0.5,2.3,2.6,2.3h4.6v19.8c0,8.1,6.1,9,8.7,9
	c1.7,0,3.5-0.3,4.5-0.7c1.6-0.7,1.8-1.9,1.8-2.3c0-1.4-0.9-2.3-2.2-2.3c-0.3,0-0.7,0.1-1.1,0.2c-0.7,0.3-1.3,0.4-1.9,0.4
	c-2.1,0-4.3-0.7-4.3-5.6v-18.5L422.4,127.5L422.4,127.5z M434,122.2c-1.3,0-2.7,0.8-2.7,2.9v28.2c0,2.2,1.4,2.9,2.7,2.9
	c1.3,0,2.7-0.8,2.7-2.9v-28.2C436.7,123,435.3,122.2,434,122.2z M434,107c-1.8,0-3.7,1.5-3.7,3.7s1.9,3.7,3.7,3.7
	c1.8,0,3.7-1.5,3.7-3.7S435.8,107,434,107z M461,121.9c-10.2,0-17.6,7.3-17.6,17.4s7.4,17.4,17.6,17.4s17.6-7.3,17.6-17.4
	S471.2,121.9,461,121.9z M461,152c-7,0-11.8-5.2-11.8-12.6c0-7.3,5-12.7,11.8-12.7c7,0,11.9,5.2,11.9,12.7
	C472.9,146.8,468,152,461,152z M500.7,121.9c-4.4,0-8.7,2.3-10.9,5.6l-0.1-2.5c-0.1-2.5-1.9-2.8-2.7-2.8c-0.3,0-1.2,0.1-1.9,0.8
	c-0.5,0.5-0.7,1.2-0.7,2c0.1,1.1,0.1,3.9,0.1,5.2v23.1c0,2.2,1.4,2.9,2.7,2.9c1.3,0,2.7-0.8,2.7-2.9v-14.5c0-8.5,4.7-12.3,9.4-12.3
	c5.8,0,8.4,3.4,8.4,10.9v15.8c0,2.2,1.4,2.9,2.7,2.9s2.7-0.8,2.7-2.9v-17.7C513.4,127,508.8,121.9,500.7,121.9z M508.3,137.6
	L508.3,137.6L508.3,137.6L508.3,137.6z M548.5,152.4c-0.1-1.1-0.2-2.2-0.2-4.2V134c0-7.5-5-12.1-12.9-12.1c-4.6,0-8.9,1.4-11.6,3.7
	c-0.7,0.6-1,1.3-1,2c0,1.3,0.9,2.3,2.2,2.3c0.6,0,1.2-0.2,1.9-0.7c2.5-1.8,5.1-2.6,8.1-2.6c5.5,0,8.3,2.7,8.3,8v0.7
	c-11.6,0-22.8,1-22.8,11.2c0,7,6,10.2,11.6,10.2c5,0,8.6-1.7,11.5-5.5c0,0.8,0.1,1.6,0.2,2.5c0.3,2.4,1.9,2.7,2.6,2.7
	c1.2,0,2.4-0.8,2.4-2.6c0-0.3,0-0.6-0.1-1.1L548.5,152.4z M526.2,138L526.2,138L526.2,138z M533.2,152.1c-1.7,0-7.2-0.4-7.2-5.8
	c0-2.8,1.7-6.6,16.2-6.6h1v2C543.2,146.7,540,152.1,533.2,152.1z M559.6,102.4c-1.3,0-2.7,0.8-2.7,2.9v48.1c0,2.2,1.4,2.9,2.7,2.9
	s2.7-0.8,2.7-2.9v-48.1C562.4,103.2,561,102.4,559.6,102.4z M149.3,150.6c-10.8-18.5-30.3-29.8-51.9-29.8s-41.1,11.3-51.9,29.8
	c-12.5-13-20.2-30.6-20.2-50c0-39.8,32.3-72.1,72.1-72.1s72.1,32.3,72.1,72.1C169.5,120,161.8,137.7,149.3,150.6 M135.2,162
	c-7.1-14.3-21.6-23.4-37.8-23.4s-30.7,9.1-37.8,23.4c-3.4-2.1-6.7-4.5-9.7-7.2c9.6-17.4,27.5-28.1,47.5-28.1s38,10.7,47.5,28.1
	C141.9,157.5,138.6,159.9,135.2,162 M119.3,169.4c-4.3-8.1-12.6-13.3-21.9-13.3c-9.2,0-17.7,5.2-21.9,13.3
	c-3.7-1.2-7.4-2.7-10.8-4.5c6.1-12.5,18.7-20.4,32.7-20.4c14.1,0,26.6,7.9,32.7,20.4C126.7,166.7,123,168.2,119.3,169.4 M97.4,172.8
	c-5.5,0-10.9-0.6-16.1-1.8c3.4-5.5,9.5-9,16.1-9c6.7,0,12.7,3.4,16.1,9C108.3,172.1,102.9,172.8,97.4,172.8 M97.4,22.6
	c-43,0-78,35-78,78s35,78,78,78s78-35,78-78S140.4,22.6,97.4,22.6 M97.4,75.4c-13.7,0-24.8,11.1-24.8,24.8c0,4.4,1.1,8.6,3.3,12.4
	c0.3,0.6,0.7,1.1,1,1.6c0.6,0.8,1.5,1.3,2.4,1.3c0.6,0,1.1-0.2,1.7-0.5c1.3-0.9,1.7-2.7,0.8-4.1c-0.3-0.4-0.5-0.8-0.8-1.2
	c-1.6-2.9-2.5-6.1-2.5-9.5c0-10.5,8.5-19,19-19s19,8.5,19,19c0,3.3-0.9,6.6-2.5,9.5c-0.2,0.4-0.5,0.8-0.8,1.2
	c-0.9,1.3-0.6,3.2,0.8,4.1c1.3,0.9,3.2,0.6,4.1-0.8c0.4-0.5,0.7-1.1,1-1.6c2.2-3.8,3.3-8,3.3-12.4C122.2,86.5,111.1,75.4,97.4,75.4
	 M97.4,57.9c-23.3,0-42.3,19-42.3,42.3c0,7.2,1.8,14.3,5.3,20.5c0.5,1,1.5,1.5,2.6,1.5c0.5,0,1-0.1,1.4-0.4c1.4-0.8,1.9-2.6,1.1-4
	c-3-5.4-4.6-11.5-4.6-17.7c0-20.1,16.3-36.4,36.4-36.4s36.4,16.3,36.4,36.4c0,6.2-1.6,12.3-4.6,17.7c-0.8,1.4-0.3,3.2,1.1,4
	c1.4,0.8,3.2,0.3,4-1.1c3.5-6.2,5.3-13.3,5.3-20.5C139.7,76.9,120.7,57.9,97.4,57.9 M97.4,40.2c-33.1,0-60.1,27-60.1,60.1
	c0,10.4,3.4,22.1,9.2,31.9c0.5,0.9,1.5,1.4,2.5,1.4c0.5,0,1-0.1,1.5-0.4c1.4-0.8,1.8-2.6,1-4c-5.3-9-8.4-19.5-8.4-28.9
	c0-30,24.3-54.3,54.2-54.3s54.2,24.3,54.2,54.2c0,9.5-3,19.9-8.2,28.6c-0.8,1.4-0.4,3.2,1,4s3.2,0.4,4-1c5.7-9.6,9-21.1,9-31.6
	C157.5,67.2,130.5,40.2,97.4,40.2 M577.2,97.9c-5.2,0-9.5,4.2-9.5,9.4c0,5.2,4.1,9.3,9.5,9.3c5.3,0,9.4-4.1,9.4-9.3
	C586.6,102.1,582.4,97.9,577.2,97.9 M577.2,114.8c-4.2,0-7.6-3.4-7.6-7.6s3.4-7.6,7.6-7.6c4.2,0,7.6,3.4,7.6,7.6
	C584.7,111.5,581.3,114.8,577.2,114.8 M579,107.5c1.4-0.4,2.3-1.4,2.3-2.7c0-2.2-2.1-3-4.1-3h-2.5c-0.8,0-1.3,0.4-1.3,1.2v7.9
	c0,0.8,0.6,1.1,1.2,1.1c0.5,0,1.2-0.3,1.2-1.1v-3.1h1l2.4,3.6c0.3,0.4,0.6,0.6,1.1,0.6c0.6,0,1.1-0.5,1.1-1.1c0-0.2-0.1-0.5-0.2-0.7
	L579,107.5z M579,104.8c0,0.8-0.7,1.2-2,1.2h-1.3v-2.3h1.5C578,103.7,579,103.9,579,104.8"/>
</svg>
