<?xml version="1.0" standalone="no"?>
<!DOCTYPE svg PUBLIC "-//W3C//DTD SVG 20010904//EN"
 "http://www.w3.org/TR/2001/REC-SVG-20010904/DTD/svg10.dtd">
<svg version="1.0" xmlns="http://www.w3.org/2000/svg"
 width="500.000000pt" height="196.000000pt" viewBox="0 0 500.000000 196.000000"
 preserveAspectRatio="xMidYMid meet">

<g transform="translate(0.000000,196.000000) scale(0.100000,-0.100000)"
fill="#000000" stroke="none">
<path d="M270 1831 c0 -5 15 -13 33 -16 59 -13 57 -4 57 -310 0 -156 -3 -291
-6 -299 -4 -9 -23 -19 -45 -22 -79 -13 -35 -24 96 -24 137 0 169 9 93 26 l-43
9 -3 153 -3 152 176 0 176 0 -3 -152 -3 -153 -37 -9 c-70 -17 -39 -26 92 -26
80 0 130 4 130 10 0 6 -10 10 -23 10 -12 0 -33 7 -45 16 -22 15 -22 17 -22
303 0 313 -2 303 58 316 68 14 27 25 -98 25 -78 0 -130 -4 -130 -10 0 -5 12
-12 28 -16 15 -3 33 -7 40 -10 9 -2 12 -38 12 -134 l0 -130 -175 0 -176 0 3
132 3 132 43 9 c23 4 40 12 37 18 -8 12 -265 12 -265 0z"/>
<path d="M2088 1799 c-21 -12 -24 -59 -6 -77 7 -7 24 -12 38 -12 14 0 31 5 38
12 7 7 12 24 12 38 0 45 -40 64 -82 39z"/>
<path d="M3054 1740 c-34 -13 -54 -50 -54 -98 0 -58 33 -92 87 -91 l38 1 -38
8 c-49 9 -58 19 -64 73 -6 54 8 84 50 102 34 15 16 19 -19 5z"/>
<path d="M3205 1742 c-5 -4 -10 -49 -10 -100 0 -75 3 -92 15 -92 12 0 14 11
12 49 -3 42 0 51 19 65 13 9 18 16 12 16 -7 0 -15 -6 -20 -12 -5 -8 -10 5 -13
34 -3 29 -9 45 -15 40z"/>
<path d="M3465 1742 c-5 -4 -10 -49 -10 -100 0 -75 3 -92 15 -92 12 0 14 13
12 72 -4 113 -6 128 -17 120z"/>
<path d="M3635 1743 c-6 -2 -9 -35 -8 -80 3 -83 -6 -103 -43 -103 -44 0 -56
86 -15 110 15 9 15 9 0 10 -25 0 -43 -28 -43 -65 0 -18 6 -40 13 -49 15 -18
66 -22 77 -5 5 8 9 8 14 -1 18 -29 25 1 20 91 -3 57 -9 94 -15 92z"/>
<path d="M3370 1720 c0 -5 4 -10 9 -10 6 0 13 5 16 10 3 6 -1 10 -9 10 -9 0
-16 -4 -16 -10z"/>
<path d="M3279 1672 c9 -7 12 -26 10 -66 -4 -53 -3 -56 20 -56 18 0 21 3 13
13 -6 7 -12 35 -14 62 -2 41 -7 50 -23 53 -15 2 -17 1 -6 -6z"/>
<path d="M3379 1673 c0 -5 0 -27 1 -51 1 -24 -4 -50 -10 -58 -10 -11 -8 -14
11 -14 23 0 24 2 21 65 -2 36 -8 65 -13 65 -5 0 -9 -3 -10 -7z"/>
<path d="M3709 1673 c0 -5 0 -30 1 -57 1 -31 -3 -52 -12 -57 -9 -6 -5 -9 12
-9 24 0 25 1 22 65 -2 36 -8 65 -13 65 -5 0 -9 -3 -10 -7z"/>
<path d="M3750 1676 c0 -2 7 -6 15 -10 8 -3 15 -1 15 4 0 6 -7 10 -15 10 -8 0
-15 -2 -15 -4z"/>
<path d="M3817 1662 c-33 -37 -11 -112 34 -112 8 0 4 6 -9 16 -26 18 -28 68
-4 97 20 23 0 22 -21 -1z"/>
<path d="M3883 1669 c9 -5 17 -17 17 -24 0 -8 5 -15 10 -15 6 0 10 4 10 9 0
14 -29 41 -43 41 -7 0 -4 -5 6 -11z"/>
<path d="M3967 1670 c-3 -8 -7 -39 -9 -68 -3 -50 -2 -52 22 -51 14 0 19 3 13
6 -8 3 -13 22 -13 47 0 23 6 48 13 55 8 9 8 12 0 7 -6 -3 -13 0 -16 6 -3 10
-6 9 -10 -2z"/>
<path d="M4044 1664 c19 -19 22 -100 4 -107 -7 -3 -2 -6 12 -6 24 -1 25 1 21
51 -3 56 -14 78 -38 78 -12 0 -12 -3 1 -16z"/>
<path d="M1120 1604 c-49 -21 -70 -43 -70 -74 0 -32 21 -53 47 -48 13 2 19 15
23 43 5 36 9 41 45 54 52 18 109 8 141 -24 19 -19 24 -35 24 -73 l0 -49 -49
-7 c-111 -15 -209 -63 -236 -116 -47 -92 27 -172 143 -155 49 7 116 37 128 56
4 7 12 0 20 -19 16 -38 51 -49 105 -33 38 12 56 35 22 29 -40 -6 -43 7 -43
174 0 182 -7 206 -72 239 -47 24 -176 26 -228 3z m210 -277 c0 -58 -4 -77 -17
-89 -82 -72 -193 -61 -193 19 0 29 8 43 39 73 39 37 104 68 149 69 21 1 22 -3
22 -72z"/>
<path d="M1645 1601 c-86 -39 -134 -135 -122 -246 12 -119 79 -187 199 -201
99 -12 175 25 209 100 23 50 24 66 4 66 -8 0 -15 -8 -15 -17 0 -26 -36 -80
-62 -94 -136 -73 -261 30 -245 203 10 108 76 178 169 178 56 0 106 -31 131
-83 10 -20 23 -37 28 -37 5 0 9 34 9 76 0 56 -3 75 -12 72 -7 -3 -14 -14 -16
-26 -3 -21 -3 -21 -49 4 -58 31 -166 33 -228 5z"/>
<path d="M2088 1598 c-32 -11 -58 -24 -58 -30 0 -6 9 -8 20 -5 33 9 40 -22 40
-180 0 -177 -3 -190 -41 -198 -61 -14 -24 -25 81 -25 106 0 140 10 83 25 -15
3 -31 12 -35 18 -4 7 -8 103 -8 215 0 155 -3 202 -12 201 -7 0 -39 -10 -70
-21z"/>
<path d="M2380 1598 c-70 -36 -83 -113 -19 -113 19 0 25 6 27 30 2 17 11 38
19 47 34 38 138 32 176 -10 10 -11 18 -39 19 -67 l3 -48 -70 -14 c-88 -17
-187 -65 -211 -101 -11 -15 -19 -45 -19 -70 0 -35 5 -48 28 -67 15 -13 43 -27
63 -31 49 -9 130 11 170 41 41 31 42 31 46 -2 4 -37 43 -51 97 -34 23 6 41 16
41 22 0 6 -9 8 -19 4 -34 -10 -41 24 -41 187 0 173 -9 201 -73 231 -54 26
-181 23 -237 -5z m230 -262 c0 -48 -5 -69 -20 -88 -26 -33 -79 -58 -124 -58
-69 0 -99 68 -55 124 31 39 122 83 177 85 21 1 22 -3 22 -63z"/>
<path d="M4665 1438 c-2 -7 -6 -52 -7 -101 -3 -81 -2 -87 17 -87 19 0 20 6 17
100 -2 55 -8 100 -13 100 -5 0 -12 -6 -14 -12z"/>
<path d="M3048 1345 l-3 -95 25 0 c17 0 21 3 12 9 -10 6 -13 31 -10 95 2 61 0
86 -9 86 -8 0 -13 -30 -15 -95z"/>
<path d="M4105 1420 c3 -5 10 -10 16 -10 5 0 9 5 9 10 0 6 -7 10 -16 10 -8 0
-12 -4 -9 -10z"/>
<path d="M3310 1396 c0 -8 -6 -17 -12 -19 -10 -4 -10 -6 0 -6 8 -1 12 -18 12
-49 0 -46 12 -72 34 -72 6 0 5 5 -2 12 -7 7 -12 33 -12 59 0 41 3 48 23 52
l22 4 -22 2 c-13 0 -23 8 -23 16 0 8 -4 15 -10 15 -5 0 -10 -6 -10 -14z"/>
<path d="M3987 1389 c-9 -10 -12 -19 -7 -19 6 0 10 -18 10 -41 0 -52 15 -79
43 -78 15 0 17 2 7 6 -23 9 -30 24 -30 71 0 37 3 42 23 43 14 0 17 2 7 6 -8 3
-20 11 -26 19 -8 10 -14 9 -27 -7z"/>
<path d="M3139 1373 c0 -5 0 -30 1 -57 1 -31 -3 -52 -12 -57 -9 -6 -5 -9 12
-9 24 0 25 1 22 65 -2 36 -8 65 -13 65 -5 0 -9 -3 -10 -7z"/>
<path d="M3214 1368 c14 -12 17 -25 15 -66 -4 -50 -3 -52 21 -52 15 0 20 3 13
8 -6 4 -13 32 -15 62 -3 50 -5 55 -28 58 -23 3 -24 3 -6 -10z"/>
<path d="M3425 1366 c-41 -30 -15 -119 34 -115 14 1 14 2 0 6 -37 10 -45 83
-11 111 22 17 0 15 -23 -2z"/>
<path d="M3486 1372 c6 -4 16 -16 22 -27 8 -15 11 -16 12 -4 0 17 -19 39 -34
39 -8 0 -7 -3 0 -8z"/>
<path d="M3568 1315 c-2 -53 0 -65 12 -65 11 0 15 12 15 52 0 46 3 54 25 65
15 8 19 13 10 13 -9 0 -21 -5 -28 -12 -9 -9 -12 -9 -12 0 0 7 -4 12 -9 12 -5
0 -11 -29 -13 -65z"/>
<path d="M3678 1315 c-2 -53 0 -65 12 -65 12 0 14 11 12 49 -3 42 0 51 19 65
13 9 19 16 13 16 -5 0 -15 -5 -22 -12 -9 -9 -12 -9 -12 0 0 7 -4 12 -9 12 -5
0 -11 -29 -13 -65z"/>
<path d="M3759 1372 c9 -7 12 -26 10 -66 -4 -53 -3 -56 20 -56 18 0 21 3 13
13 -6 7 -12 35 -14 62 -2 41 -7 50 -23 53 -15 2 -17 1 -6 -6z"/>
<path d="M3850 1370 c-8 -5 -12 -11 -10 -14 3 -2 14 2 24 10 22 15 10 19 -14
4z"/>
<path d="M3904 1367 c10 -7 17 -20 16 -28 -6 -39 1 -89 13 -89 8 0 11 15 8 52
-3 57 -14 78 -39 78 -13 0 -13 -2 2 -13z"/>
<path d="M4108 1315 c-2 -53 0 -65 12 -65 12 0 14 12 12 65 -2 36 -7 65 -12
65 -5 0 -10 -29 -12 -65z"/>
<path d="M4187 1362 c-25 -27 -22 -78 5 -96 51 -36 108 -8 108 52 0 30 -21 62
-41 62 -6 0 -3 -7 5 -16 19 -18 21 -75 4 -92 -7 -7 -21 -12 -33 -12 -30 0 -45
19 -45 56 0 23 7 38 22 48 16 12 18 16 7 16 -9 0 -23 -8 -32 -18z"/>
<path d="M4345 1367 c-2 -6 -5 -36 -7 -65 -3 -48 -1 -52 20 -52 20 0 21 2 10
20 -9 14 -10 29 -2 59 9 32 8 41 -3 45 -8 3 -16 0 -18 -7z"/>
<path d="M4424 1367 c14 -11 17 -24 15 -65 -3 -41 -1 -52 11 -52 12 0 14 11
11 52 -3 57 -14 78 -39 78 -13 0 -13 -2 2 -13z"/>
<path d="M4513 1365 c-3 -9 -3 -19 1 -22 3 -4 6 1 6 10 0 8 6 18 13 20 9 4 9
6 -1 6 -7 1 -15 -6 -19 -14z"/>
<path d="M4573 1369 c20 -12 23 -35 5 -42 -10 -4 -10 -6 0 -6 6 -1 12 -9 12
-19 0 -10 -6 -24 -12 -31 -10 -11 -10 -13 0 -7 6 4 12 2 12 -3 0 -6 6 -11 13
-11 8 0 11 15 8 52 -3 57 -14 78 -40 78 -14 -1 -14 -2 2 -11z"/>
<path d="M3849 1301 c-20 -16 -21 -21 -10 -35 7 -9 23 -16 35 -15 20 0 20 1
-2 9 -19 8 -21 13 -13 29 6 11 16 22 23 24 8 4 9 6 2 6 -7 1 -22 -7 -35 -18z"/>
<path d="M4519 1302 c-29 -25 -20 -52 18 -51 27 0 27 1 6 9 -29 12 -29 25 -1
44 12 9 17 16 11 16 -6 0 -21 -8 -34 -18z"/>
<path d="M3496 1265 c-11 -8 -15 -15 -9 -15 6 0 16 7 23 15 16 19 11 19 -14 0z"/>
<path d="M3428 1163 c243 -2 641 -2 885 0 243 1 44 2 -443 2 -487 0 -686 -1
-442 -2z"/>
<path d="M877 1018 c-57 -20 -67 -38 -21 -38 l24 0 -2 -302 -3 -303 -32 -10
c-60 -17 -34 -25 82 -25 116 0 142 8 83 25 l-33 10 -3 333 c-3 377 7 346 -95
310z"/>
<path d="M3483 1018 c-57 -22 -68 -38 -28 -38 l25 0 -2 -302 -3 -303 -32 -10
c-60 -17 -34 -25 82 -25 116 0 142 8 83 25 l-33 10 -3 333 c-3 376 6 348 -89
310z"/>
<path d="M1340 1010 c0 -5 12 -10 28 -10 54 0 53 7 50 -321 l-3 -304 -37 -9
c-21 -5 -38 -13 -38 -18 0 -4 117 -8 260 -8 200 0 262 3 264 13 3 6 7 45 10
85 7 84 -8 96 -30 23 -23 -79 -29 -81 -186 -81 l-138 0 0 150 0 150 99 0 c106
0 110 -2 120 -53 4 -17 12 -32 19 -35 9 -3 12 24 12 108 0 84 -3 111 -12 108
-7 -3 -15 -18 -19 -35 -10 -51 -14 -53 -120 -53 l-99 0 0 135 0 135 123 0
c151 0 167 -7 187 -78 8 -29 18 -52 22 -52 5 0 8 36 8 80 l0 80 -260 0 c-167
0 -260 -4 -260 -10z"/>
<path d="M446 795 c-22 -8 -51 -22 -65 -33 -89 -65 -107 -255 -35 -350 85
-111 313 -105 367 10 26 58 30 78 14 78 -8 0 -18 -11 -21 -25 -3 -13 -20 -40
-37 -59 -36 -42 -105 -61 -162 -45 -65 18 -117 100 -117 187 l0 32 175 0 175
0 0 38 c-1 50 -31 114 -66 139 -59 42 -156 54 -228 28z m160 -40 c25 -17 54
-74 54 -104 0 -20 -5 -21 -130 -21 -112 0 -130 2 -130 16 0 31 34 87 64 105
37 23 113 25 142 4z"/>
<path d="M2174 791 c-23 -10 -49 -29 -58 -42 l-16 -23 0 37 c0 43 -8 45 -84
18 -53 -18 -74 -43 -34 -39 l23 3 0 -185 0 -185 -32 -10 c-60 -17 -34 -25 82
-25 116 0 142 8 83 25 l-33 10 -3 135 c-2 74 2 151 7 171 15 50 51 80 105 86
38 5 48 2 70 -20 26 -26 26 -27 26 -197 l0 -172 -30 -11 c-16 -6 -30 -15 -30
-19 0 -4 47 -8 105 -8 58 0 105 4 105 8 0 4 -13 13 -30 19 l-30 11 0 141 c0
189 21 236 109 248 53 7 87 -15 100 -64 12 -43 15 -302 3 -320 -4 -6 -20 -15
-35 -18 -57 -15 -23 -25 83 -25 61 0 110 3 110 8 0 4 -15 14 -33 22 l-32 15
-5 178 -5 179 -32 28 c-63 57 -173 50 -237 -15 l-34 -33 -10 23 c-26 58 -134
81 -208 46z"/>
<path d="M3070 794 c-19 -8 -47 -27 -62 -41 l-28 -27 0 37 c0 43 -8 45 -84 18
-53 -18 -74 -43 -34 -39 l23 3 0 -295 0 -295 -32 -10 c-60 -17 -34 -25 82 -25
116 0 142 8 83 25 l-33 10 -3 118 -3 119 27 -21 c94 -74 264 -39 314 65 28 57
37 155 20 224 -28 118 -158 182 -270 134z m120 -40 c44 -27 63 -70 68 -154 5
-95 -10 -154 -53 -197 -29 -29 -39 -33 -88 -33 -101 0 -137 53 -137 202 0 75
4 99 20 126 40 66 129 92 190 56z"/>
<path d="M3851 795 c-92 -29 -145 -114 -144 -230 1 -81 18 -128 65 -174 61
-60 197 -78 276 -37 40 20 80 73 88 116 10 46 -10 36 -38 -20 -28 -55 -73 -82
-137 -83 -91 -1 -150 61 -166 175 l-7 48 178 2 179 3 -3 44 c-8 132 -141 203
-291 156z m158 -41 c22 -16 60 -86 61 -111 0 -10 -34 -13 -135 -13 -87 0 -135
4 -135 10 0 22 41 89 66 109 33 26 109 28 143 5z"/>
<path d="M4352 792 c-101 -36 -142 -100 -142 -222 0 -127 47 -194 157 -226
119 -35 244 4 298 91 27 44 30 56 30 135 0 79 -3 91 -30 135 -56 91 -193 129
-313 87z m202 -61 c43 -42 60 -101 54 -190 -8 -114 -60 -171 -154 -171 -67 0
-110 28 -136 88 -45 100 -17 248 54 292 26 17 45 20 91 17 49 -3 62 -8 91 -36z"/>
</g>
</svg>
